<svg xmlns="http://www.w3.org/2000/svg" xmlns:xlink="http://www.w3.org/1999/xlink" xml:space="preserve" style="shape-rendering:geometricPrecision;text-rendering:geometricPrecision;image-rendering:optimizeQuality;" viewBox="0 0 6.82666 8.533325000000001" x="0px" y="0px" fill-rule="evenodd" clip-rule="evenodd"><defs><style type="text/css">
   
    .fil0 {fill:black}
   
  </style></defs><g><g><path class="fil0" d="M4.68033 5.44124l0 -4.07002 -3.35033 0 0 3.8444c0,0.0658819 0.027,0.125827 0.0705,0.169323 0.0434961,0.0435 0.103437,0.0705 0.169319,0.0705l3.02896 0c0.0214843,0 0.0419488,-0.00270472 0.0610748,-0.00777165 0.00695276,-0.00184252 0.0137835,-0.00398819 0.0204764,-0.00642913zm-0.413764 -3.41641l-2.52281 0c-0.0396732,0 -0.0718386,-0.0321654 -0.0718386,-0.0718386 0,-0.0396772 0.0321654,-0.0718386 0.0718386,-0.0718386l2.52281 0c0.0396732,0 0.0718386,0.0321614 0.0718386,0.0718386 0,0.0396732 -0.0321654,0.0718386 -0.0718386,0.0718386zm-2.52281 0.570744l2.52281 0c0.0396732,0 0.0718386,0.0321654 0.0718386,0.0718386 0,0.0396732 -0.0321654,0.0718386 -0.0718386,0.0718386l-2.52281 0c-0.0396732,0 -0.0718386,-0.0321654 -0.0718386,-0.0718386 0,-0.0396732 0.0321654,-0.0718386 0.0718386,-0.0718386zm0 0.714421l2.52281 0c0.0396732,0 0.0718386,0.0321654 0.0718386,0.0718386 0,0.0396732 -0.0321654,0.0718386 -0.0718386,0.0718386l-2.52281 0c-0.0396732,0 -0.0718386,-0.0321654 -0.0718386,-0.0718386 0,-0.0396732 0.0321654,-0.0718386 0.0718386,-0.0718386zm0.10885 0.662598l0.870709 0c0.0396732,0 0.0718386,0.0321654 0.0718386,0.0718386l0 0.829244c0,0.0396732 -0.0321654,0.0718386 -0.0718386,0.0718386l-0.870709 0c-0.0396732,0 -0.0718386,-0.0321654 -0.0718386,-0.0718386l0 -0.829244c0,-0.0396732 0.0321654,-0.0718386 0.0718386,-0.0718386zm1.68556 0.0518228l0.728409 0c0.0396732,0 0.0718386,0.0321654 0.0718386,0.0718386 0,0.0396772 -0.0321654,0.0718386 -0.0718386,0.0718386l-0.728409 0c-0.0396732,0 -0.0718386,-0.0321614 -0.0718386,-0.0718386 0,-0.0396732 0.0321654,-0.0718386 0.0718386,-0.0718386zm-0.0718386 0.429051c0,-0.0396732 0.0321654,-0.0718386 0.0718386,-0.0718386l0.728409 0c0.0396732,0 0.0718386,0.0321654 0.0718386,0.0718386 0,0.0396732 -0.0321654,0.0718386 -0.0718386,0.0718386l-0.728409 0c-0.0396732,0 -0.0718386,-0.0321654 -0.0718386,-0.0718386zm0 0.357213c0,-0.0396732 0.0321654,-0.0718386 0.0718386,-0.0718386l0.728409 0c0.0396732,0 0.0718386,0.0321654 0.0718386,0.0718386 0,0.0396732 -0.0321654,0.0718386 -0.0718386,0.0718386l-0.728409 0c-0.0396732,0 -0.0718386,-0.0321654 -0.0718386,-0.0718386z"/><polygon class="fil0" points="2.65148,4.80184 2.65148,4.11627 1.92444,4.11627 1.92444,4.80184 "/><path class="fil0" d="M5.49666 5.16442l0 -3.50218c0,-0.064437 -0.024626,-0.122756 -0.0643031,-0.164803 -0.0385591,-0.0408701 -0.0915394,-0.0662441 -0.149626,-0.0662441l-0.312173 0 0 3.96428 0.312173 0c0.0580866,0 0.111067,-0.025374 0.149626,-0.0662441 0.0396772,-0.0420472 0.0643031,-0.100366 0.0643031,-0.164803z"/></g><path class="fil0" d="M3.41333 -3.93701e-006c1.88513,0 3.41333,1.5282 3.41333,3.41333 0,1.88513 -1.5282,3.41333 -3.41333,3.41333 -1.88513,0 -3.41333,-1.5282 -3.41333,-3.41333 0,-1.88514 1.5282,-3.41333 3.41333,-3.41333zm0 0.341437c1.69656,0 3.0719,1.37533 3.0719,3.0719 0,1.69656 -1.37533,3.0719 -3.0719,3.0719 -1.69656,0 -3.0719,-1.37533 -3.0719,-3.0719 0,-1.69657 1.37533,-3.0719 3.0719,-3.0719z"/></g><text x="0" y="21.82666" fill="#000000" font-size="5px" font-weight="bold" font-family="'Helvetica Neue', Helvetica, Arial-Unicode, Arial, Sans-serif">Created by IYIKON</text><text x="0" y="26.82666" fill="#000000" font-size="5px" font-weight="bold" font-family="'Helvetica Neue', Helvetica, Arial-Unicode, Arial, Sans-serif">from the Noun Project</text></svg>