<svg id="Layer_1" data-name="Layer 1" xmlns="http://www.w3.org/2000/svg" viewBox="0 0 512 512"><defs><style>.cls-1{fill:#141f38;}</style></defs><title>newspaper-1-glyph</title><path class="cls-1" d="M373.62,55.35H27.68A27.71,27.71,0,0,0,0,83V394.38a62.34,62.34,0,0,0,62.27,62.27h362.2a62.19,62.19,0,0,1-23.17-48.43V83A27.7,27.7,0,0,0,373.62,55.35Zm-71.36,94.1c-12.16-2.77-19-6.15-19-16.07v-.15c0-9.23,8.16-15.61,19.5-15.61a32.9,32.9,0,0,1,20.73,6.76l-5.39,7.15c-5.14-3.61-10.28-5.53-15.5-5.53-5.88,0-9.3,2.85-9.3,6.38v.15c0,4.15,2.61,6,13.54,8.46,12.08,2.77,18.36,6.84,18.36,15.76v.15c0,10.07-8.4,16.07-20.4,16.07A36.44,36.44,0,0,1,281,164.36l6-6.77c5.47,4.46,10.94,7,18,7,6.2,0,10.12-2.69,10.12-6.76v-.15C315.15,153.83,312.86,151.75,302.26,149.45Zm-100.5-31.06,13.63,39.9,14-40.05h8.49l14,40.05,13.63-39.9h10.52l-19.91,54.2h-8.65l-14-38.67-14,38.67h-8.65l-19.91-54.2Zm-61.15,0H183v8.46H150.64v14h28.64v8.46H150.64v14.45h32.72v8.46H140.61Zm-64.5,0h9.3L116,155.6V118.39h9.87V172.2h-8.41L86,133.92V172.2H76.11Zm110.7,255.23H76.11a6.92,6.92,0,1,1,0-13.84h110.7a6.92,6.92,0,0,1,0,13.84Zm138.38-55.35H76.11a6.92,6.92,0,0,1,0-13.84H325.19a6.92,6.92,0,0,1,0,13.84Zm0-55.35H76.11a6.92,6.92,0,1,1,0-13.84H325.19a6.92,6.92,0,0,1,0,13.84Zm186.81,0v145.3a48.43,48.43,0,0,1-96.86,0v-173h69.19A27.7,27.7,0,0,1,512,262.92Z"/></svg>